<?xml version="1.0" encoding="utf-8"?>
<!-- Generator: Adobe Illustrator 21.0.2, SVG Export Plug-In . SVG Version: 6.00 Build 0)  -->
<svg version="1.1" id="Layer_1" xmlns="http://www.w3.org/2000/svg" xmlns:xlink="http://www.w3.org/1999/xlink" x="0px" y="0px"
	 viewBox="0 0 144 135.2" style="enable-background:new 0 0 144 135.2;" xml:space="preserve">
<style type="text/css">
	.st0{fill:#603913;}
	.st1{fill:#FFFFFF;}
	.st2{fill:none;stroke:#603913;stroke-width:2;stroke-linecap:round;stroke-miterlimit:10;}
</style>
<path class="st0" d="M116.8,54.3c-0.1-10.1-6.3-18.7-15-22.5c-0.3-0.1-0.7-0.2-1.1-0.3c-2.8-1.1-5.8-1.7-9-1.7
	c-7.9,0-14.9,3.7-19.4,9.4c-0.3,0.2-0.5,0.4-0.5,0.4c0,0,0,0,0,0c0,0,0,0,0,0c-4.6-6-11.7-9.8-19.8-9.8c0,0-0.1,0-0.1,0
	c0,0-0.1,0-0.1,0c-3.5,0-6.9,0.7-10,2.1c-4.4,1.6-8.5,4.8-11.8,10.4c-0.6,1.1-1.1,2.2-1.6,3.2c-1.2,3-1.7,6-1.6,8.9
	c0,0.1,0,0.2,0,0.3c0,2,0.2,4,0.7,5.8c0,0.1,0,0.1,0,0.2c0,0.1,0.1,0.2,0.1,0.3c0.8,3.4,2.4,6.8,4.3,10c1.8,2.9,3.9,5.7,6.2,8.3l0,0
	c0,0,7.2,8.1,15.1,13.9c0.7,0.5,1.4,0.9,2,1.2c1.9,1.3,3.3,2.3,4,2.8c2.6,1.9,6,4,8.6,5.6c2.5,1.6,4,2.4,4,2.4s0,0,0,0v0
	c0,0,0,0,0,0s1.5-0.8,4-2.4c2.6-1.6,6-3.7,8.6-5.6c2.7-1.9,15.3-10.3,23.9-21.6l0,0c0.9-1.2,2-2.6,2.9-4c0,0,0,0,0,0
	c0.1-0.1,0.1-0.2,0.2-0.4c1.2-1.8,2.2-3.5,2.6-4.8c0.8-1.8,1.5-3.7,1.9-5.5c0-0.1,0.1-0.2,0.1-0.3c0-0.1,0-0.1,0-0.2
	c0.4-1.9,0.7-3.8,0.7-5.8C116.8,54.5,116.8,54.4,116.8,54.3z"/>
<g>
	<path class="st1" d="M43.6,59c1.4,0,2.6,0.5,3.4,1.4c0.9,0.9,1.3,2.1,1.3,3.6c0,1.5-0.4,2.6-1.3,3.6c-0.9,0.9-2,1.4-3.4,1.4
		c-1.4,0-2.6-0.5-3.4-1.4c-0.9-0.9-1.3-2.1-1.3-3.6s0.4-2.7,1.3-3.6C41,59.4,42.1,59,43.6,59z M41.5,66.5c0.3,0.3,0.6,0.5,1,0.6
		c0.4,0.1,0.7,0.2,1.1,0.2s0.7-0.1,1.1-0.2c0.4-0.1,0.7-0.3,1-0.6c0.7-0.6,1-1.5,1-2.6c0-1.1-0.3-2-1-2.6c-0.6-0.5-1.2-0.8-2.1-0.8
		c-1.3,0-2.3,0.6-2.8,1.8c-0.2,0.4-0.3,1-0.3,1.6c0,0.6,0.1,1.1,0.3,1.6C41,65.9,41.2,66.2,41.5,66.5z"/>
	<path class="st1" d="M52.3,60.7c0.9-1.2,1.8-1.7,2.9-1.7h0.1c0.2,0,0.4,0.1,0.6,0.2s0.2,0.4,0.2,0.6c0,0.2-0.1,0.4-0.2,0.6
		s-0.4,0.2-0.6,0.2h-0.1c-0.6,0-1.2,0.2-1.7,0.5c-0.5,0.3-0.9,0.7-1.2,1.2v5.6c0,0.2-0.1,0.4-0.2,0.6s-0.4,0.2-0.6,0.2
		s-0.4-0.1-0.6-0.2c-0.2-0.2-0.2-0.4-0.2-0.6v-7.9c0-0.2,0.1-0.4,0.2-0.6c0.2-0.2,0.4-0.2,0.6-0.2s0.4,0.1,0.6,0.2s0.2,0.4,0.2,0.6
		V60.7z"/>
	<path class="st1" d="M58.2,55.2c0.2-0.2,0.4-0.2,0.6-0.2c0.2,0,0.4,0.1,0.6,0.2c0.2,0.2,0.2,0.4,0.2,0.6v12c0,0.2-0.1,0.4-0.2,0.6
		c-0.2,0.2-0.4,0.2-0.6,0.2c-0.2,0-0.4-0.1-0.6-0.2C58,68.3,58,68.1,58,67.9v-12C58,55.6,58,55.4,58.2,55.2z"/>
	<path class="st1" d="M63.1,59.6c1-0.4,2.1-0.7,3.2-0.7c1.3,0,2.2,0.4,2.9,1.1c0.6,0.7,0.9,1.5,0.9,2.5v5.2c0,0.2-0.1,0.4-0.2,0.6
		s-0.4,0.2-0.6,0.2s-0.4-0.1-0.6-0.2c-0.2-0.2-0.2-0.4-0.2-0.6v-0.5c-0.3,0.3-0.8,0.7-1.3,1c-0.6,0.3-1.3,0.4-2.1,0.4
		c-0.9,0-1.6-0.2-2.1-0.7c-0.6-0.5-0.9-1.2-0.9-2c0-0.9,0.3-1.6,1-2.1c0.8-0.6,1.8-0.9,3.2-0.9h2.2v-0.1c0-0.8-0.2-1.4-0.6-1.8
		c-0.4-0.4-1-0.5-1.9-0.5c-0.7,0-1.5,0.1-2.5,0.4c-0.1,0-0.2,0-0.3,0c-0.1,0-0.3-0.1-0.4-0.2c-0.1-0.1-0.2-0.3-0.2-0.6
		C62.6,60,62.8,59.8,63.1,59.6z M63.6,65.8c0,1,0.7,1.5,2,1.5c0.6,0,1.1-0.1,1.6-0.4c0.5-0.3,0.9-0.6,1.2-1v-1.6h-2
		c-0.9,0-1.6,0.1-2.1,0.3C63.9,64.9,63.6,65.3,63.6,65.8z"/>
	<path class="st1" d="M77.7,60.5c-1.1,0-2.1,0.6-3,1.8v5.5c0,0.2-0.1,0.4-0.2,0.6s-0.4,0.2-0.6,0.2s-0.4-0.1-0.6-0.2
		c-0.2-0.2-0.2-0.4-0.2-0.6v-7.9c0-0.2,0.1-0.5,0.2-0.6c0.2-0.2,0.4-0.2,0.6-0.2s0.4,0.1,0.6,0.2c0.2,0.2,0.2,0.4,0.2,0.6v0.8
		c0.5-0.5,0.9-0.9,1.3-1.1c0.7-0.4,1.4-0.6,2-0.6c0.6,0,1.2,0.1,1.6,0.3c0.4,0.2,0.8,0.5,1,0.8c0.6,0.7,0.9,1.5,0.9,2.6v5.3
		c0,0.2-0.1,0.4-0.2,0.6s-0.4,0.2-0.6,0.2s-0.4-0.1-0.6-0.2s-0.2-0.4-0.2-0.6v-5.1c0-0.7-0.2-1.3-0.5-1.7
		C79,60.7,78.4,60.5,77.7,60.5z"/>
	<path class="st1" d="M91.3,67.4c-0.9,0.9-2,1.4-3.2,1.4c-1.2,0-2.2-0.4-3.1-1.3c-0.9-0.9-1.4-2.1-1.4-3.6c0-1.5,0.5-2.7,1.4-3.6
		c0.9-0.9,1.9-1.3,3.1-1.3c1.2,0,2.2,0.5,3.2,1.4v-4.5c0-0.2,0.1-0.5,0.2-0.6c0.2-0.2,0.4-0.2,0.6-0.2c0.2,0,0.4,0.1,0.6,0.2
		s0.2,0.4,0.2,0.6v12c0,0.2-0.1,0.4-0.2,0.6s-0.4,0.2-0.6,0.2c-0.2,0-0.4-0.1-0.6-0.2c-0.2-0.2-0.2-0.4-0.2-0.6V67.4z M91.3,61.9
		c-0.8-0.9-1.8-1.4-2.9-1.4c-1.4,0-2.3,0.6-2.8,1.9c-0.2,0.4-0.2,0.9-0.2,1.4c0,1.1,0.3,1.9,0.9,2.5c0.5,0.6,1.3,0.8,2.2,0.8
		c1.1,0,2.1-0.5,2.9-1.4V61.9z"/>
	<path class="st1" d="M100.1,59c1.4,0,2.6,0.5,3.4,1.4c0.9,0.9,1.3,2.1,1.3,3.6c0,1.5-0.4,2.6-1.3,3.6c-0.9,0.9-2,1.4-3.4,1.4
		c-1.4,0-2.6-0.5-3.4-1.4c-0.9-0.9-1.3-2.1-1.3-3.6s0.4-2.7,1.3-3.6C97.5,59.4,98.6,59,100.1,59z M98,66.5c0.3,0.3,0.6,0.5,1,0.6
		c0.4,0.1,0.7,0.2,1.1,0.2s0.7-0.1,1.1-0.2c0.4-0.1,0.7-0.3,1-0.6c0.7-0.6,1-1.5,1-2.6c0-1.1-0.3-2-1-2.6c-0.6-0.5-1.2-0.8-2.1-0.8
		c-1.3,0-2.3,0.6-2.8,1.8c-0.2,0.4-0.3,1-0.3,1.6c0,0.6,0.1,1.1,0.3,1.6C97.5,65.9,97.7,66.2,98,66.5z"/>
</g>
<line class="st2" x1="72" y1="3.3" x2="71.8" y2="24.5"/>
<line class="st2" x1="71.9" y1="110.8" x2="71.7" y2="132"/>
<line class="st2" x1="119.5" y1="63.7" x2="140.7" y2="63.9"/>
<line class="st2" x1="3.5" y1="61.8" x2="24.7" y2="62"/>
<line class="st2" x1="112.1" y1="95.8" x2="126.9" y2="110.9"/>
<line class="st2" x1="17.2" y1="11.6" x2="32.1" y2="26.7"/>
<line class="st2" x1="16.3" y1="110.9" x2="31.4" y2="96.1"/>
<line class="st2" x1="113" y1="26.5" x2="128" y2="11.7"/>
</svg>
