<svg xmlns="http://www.w3.org/2000/svg" xmlns:xlink="http://www.w3.org/1999/xlink" viewBox="0 0 417.49 139.77"><defs><style>.cls-1{fill:#39b54a;}.cls-2{fill:#603913;}.cls-3{fill:none;}.cls-4{fill:url(#linear-gradient);}.cls-5{fill:#efa320;}.cls-6{fill:#966e2a;}.cls-7{fill:url(#linear-gradient-2);}.cls-8{fill:url(#linear-gradient-3);}.cls-9{fill:url(#linear-gradient-4);}.cls-10{fill:url(#linear-gradient-5);}.cls-11{fill:#009444;}.cls-12{fill:#fff;}</style><linearGradient id="linear-gradient" x1="11.44" y1="61.64" x2="86.24" y2="17.78" gradientUnits="userSpaceOnUse"><stop offset="0.32" stop-color="#efa320"/><stop offset="0.38" stop-color="#e59c1f"/><stop offset="0.46" stop-color="#cc891d"/><stop offset="0.57" stop-color="#a26a19"/><stop offset="0.7" stop-color="#683f14"/><stop offset="0.72" stop-color="#603913"/></linearGradient><linearGradient id="linear-gradient-2" x1="99.39" y1="57.91" x2="48.49" y2="-9.23" gradientUnits="userSpaceOnUse"><stop offset="0.41" stop-color="#efa320"/><stop offset="0.49" stop-color="#be9725"/><stop offset="0.8" stop-color="#006838"/></linearGradient><linearGradient id="linear-gradient-3" x1="0.92" y1="22.74" x2="105.62" y2="111.21" gradientUnits="userSpaceOnUse"><stop offset="0.19" stop-color="#39b54a"/><stop offset="0.29" stop-color="#73af3d"/><stop offset="0.39" stop-color="#a8aa30"/><stop offset="0.48" stop-color="#cfa627"/><stop offset="0.55" stop-color="#e6a422"/><stop offset="0.59" stop-color="#efa320"/></linearGradient><linearGradient id="linear-gradient-4" x1="10.08" y1="59.32" x2="84.87" y2="15.45" xlink:href="#linear-gradient"/><linearGradient id="linear-gradient-5" x1="20.18" y1="-0.05" x2="124.88" y2="88.42" xlink:href="#linear-gradient-3"/></defs><title>Asset 2</title><g id="Layer_2" data-name="Layer 2"><g id="Layer_11" data-name="Layer 11"><path class="cls-1" d="M141.29,38V52.62h20.33a2.82,2.82,0,0,1,2.84,2.84,2.63,2.63,0,0,1-.83,2,2.8,2.8,0,0,1-2,.79H141.29V75.85a2.81,2.81,0,0,1-.89,2.11,3,3,0,0,1-2.14.86,2.93,2.93,0,0,1-3-3V35.46a3,3,0,0,1,.86-2.14,2.81,2.81,0,0,1,2.11-.89h25.67a2.82,2.82,0,0,1,2.84,2.84,2.63,2.63,0,0,1-.83,2,2.8,2.8,0,0,1-2,.79Z"/><path class="cls-1" d="M205.67,73.37a2.93,2.93,0,0,1,.89,2.15,2.82,2.82,0,0,1-.89,2.11,3,3,0,0,1-2.14.86H180.09a4.17,4.17,0,0,1-4.16-4.16V35.13a3,3,0,0,1,.86-2.14,2.82,2.82,0,0,1,2.11-.89,3,3,0,0,1,3,3V72.48h21.58A2.92,2.92,0,0,1,205.67,73.37Z"/><path class="cls-1" d="M234.34,31.76q10.43,0,16.76,6.67,6.14,6.53,6.4,17-.26,10.49-6.4,17-6.34,6.67-16.76,6.67t-16.76-6.67q-6.27-6.6-6.4-17,.13-10.43,6.4-17T234.34,31.76Zm0,41.78q8.05,0,12.67-5.21,4.49-5,4.49-12.87T247,42.58q-4.62-5.21-12.67-5.21t-12.67,5.21q-4.49,5-4.49,12.87t4.49,12.87Q226.29,73.54,234.34,73.54Z"/><path class="cls-1" d="M303.38,75.85a2.87,2.87,0,0,1-.86,2.11,3,3,0,0,1-2.18.86,2.83,2.83,0,0,1-3-3v-2q0-5.35-1.19-7.85A10.24,10.24,0,0,0,293,62a9.76,9.76,0,0,0-5.81-1.49H273.48V75.85a2.81,2.81,0,0,1-.89,2.11,3,3,0,0,1-2.14.86,2.93,2.93,0,0,1-3-3V35.46a3,3,0,0,1,.86-2.14,2.81,2.81,0,0,1,2.11-.89h15.38q9,0,13.66,3.83a11.93,11.93,0,0,1,4.29,9.57,12.83,12.83,0,0,1-2.15,7.13,12.23,12.23,0,0,1-6.5,4.82Q299.88,59,302,64.63a23.51,23.51,0,0,1,1.39,8.18Zm-18-21a16.36,16.36,0,0,0,8.94-2.18,7.13,7.13,0,0,0,3.4-6.4,7,7,0,0,0-2.64-5.94q-3.17-2.24-10-2.24H273.48V54.86Z"/><path class="cls-1" d="M317.44,32.09a3,3,0,0,1,3,3V75.85a2.81,2.81,0,0,1-.89,2.11,3,3,0,0,1-2.14.86,2.93,2.93,0,0,1-3-3V35.13a3,3,0,0,1,.86-2.14A2.82,2.82,0,0,1,317.44,32.09Z"/><path class="cls-1" d="M349.51,32.42q11,0,17.56,7.39a21.27,21.27,0,0,1,4.32,7.36,24.89,24.89,0,0,1,0,16.57,21.25,21.25,0,0,1-4.32,7.36q-6.53,7.39-17.56,7.39H336.25a2.93,2.93,0,0,1-3-3V35.46a3,3,0,0,1,.86-2.14,2.81,2.81,0,0,1,2.11-.89Zm-.73,40.46q8.18,0,13.2-4.82t4.88-12.61q0-7.79-4.88-12.61T348.79,38h-9.5V72.88Z"/><path class="cls-1" d="M417.16,74.53a4.35,4.35,0,0,1,.33,1.68A2.58,2.58,0,0,1,416.7,78a3.27,3.27,0,0,1-2.51.86A2.63,2.63,0,0,1,411.68,77l-4.29-10.3H385L380.66,77a2.63,2.63,0,0,1-2.51,1.85,3.27,3.27,0,0,1-2.51-.86,2.59,2.59,0,0,1-.79-1.75,4.32,4.32,0,0,1,.33-1.68L392,34.8a4,4,0,0,1,3.83-2.71h.66a4,4,0,0,1,3.83,2.71ZM405.08,61.2l-8.91-21.45L387.26,61.2Z"/><path class="cls-2" d="M153.3,87.42q9.17,0,13.79,4.75a13.4,13.4,0,0,1,3.83,9.9,13.4,13.4,0,0,1-3.83,9.9q-4.62,4.75-13.79,4.75h-12v14.12a2.81,2.81,0,0,1-.89,2.11,3,3,0,0,1-2.14.86,2.93,2.93,0,0,1-3-3V90.46a3,3,0,0,1,.86-2.14,2.81,2.81,0,0,1,2.11-.89ZM152.7,111q6.8,0,9.83-2.9a8,8,0,0,0,2.38-6.07q0-6.14-6.14-8.18a19.53,19.53,0,0,0-6.07-.79H141.29v18Z"/><path class="cls-2" d="M206.3,88.61a2.9,2.9,0,0,1,2.47-1.52,3,3,0,0,1,2.28.86,2.84,2.84,0,0,1,.79,2,3.7,3.7,0,0,1-.53,2L195.47,114v16.83a2.93,2.93,0,0,1-3,3,3,3,0,0,1-2.15-.86,2.81,2.81,0,0,1-.89-2.11V114L173.69,91.91a3.69,3.69,0,0,1-.53-2,2.83,2.83,0,0,1,.79-2,2.94,2.94,0,0,1,2.28-.86,2.9,2.9,0,0,1,2.48,1.52l13.79,20.06Z"/><path class="cls-2" d="M249.79,125.3a3.39,3.39,0,0,1,1.49-.26,2.17,2.17,0,0,1,1.65.76,2.52,2.52,0,0,1,.69,1.75,2.57,2.57,0,0,1-1.45,2.51,40,40,0,0,1-6.63,2.9,26.62,26.62,0,0,1-8.45,1.19,25.35,25.35,0,0,1-9.14-1.62,20.66,20.66,0,0,1-7.33-4.72q-6.6-6.47-6.6-17.36t6.6-17.36q6.4-6.34,16.5-6.34a26.5,26.5,0,0,1,8.42,1.19,35.71,35.71,0,0,1,5.41,2.21,6.81,6.81,0,0,1,2.28,1.65,2.92,2.92,0,0,1,.4,1.58,2.47,2.47,0,0,1-.69,1.72,2.16,2.16,0,0,1-1.65.76,3.39,3.39,0,0,1-1.49-.26,32,32,0,0,0-5.41-2.24,23.68,23.68,0,0,0-6.9-.86A19.23,19.23,0,0,0,230,93.89a15.56,15.56,0,0,0-5.58,3.83Q220,102.54,220,110.45t4.42,12.74q4.82,5.21,13.27,5.21a22.67,22.67,0,0,0,6.67-.86A31.87,31.87,0,0,0,249.79,125.3Z"/><path class="cls-2" d="M282.59,86.76q10.43,0,16.76,6.67,6.14,6.53,6.4,17-.26,10.49-6.4,17-6.34,6.67-16.76,6.67t-16.76-6.67q-6.27-6.6-6.4-17,.13-10.43,6.4-17T282.59,86.76Zm0,41.78q8.05,0,12.67-5.21,4.49-5,4.49-12.87t-4.49-12.87q-4.62-5.21-12.67-5.21t-12.67,5.21q-4.49,5-4.49,12.87t4.49,12.87Q274.54,128.54,282.59,128.54Z"/><path class="cls-2" d="M351.49,87.09a3,3,0,0,1,3,3v39.4a4.08,4.08,0,0,1-1.29,3,4.24,4.24,0,0,1-3.07,1.25h-.79a4.14,4.14,0,0,1-3.5-1.78L320.34,95.14v35.71a2.81,2.81,0,0,1-.89,2.11,3,3,0,0,1-2.14.86,2.93,2.93,0,0,1-3-3V91.45a4.24,4.24,0,0,1,1.25-3.07,4.08,4.08,0,0,1,3-1.29h.86a4.59,4.59,0,0,1,3.63,2l25.41,36.7V90.13a3,3,0,0,1,.86-2.14A2.82,2.82,0,0,1,351.49,87.09Z"/><path class="cls-3" d="M75.92,29.92a29.37,29.37,0,0,1-5.5-6.16A29.27,29.27,0,0,0,75.92,29.92Z"/><path class="cls-2" d="M75.92,29.92a23.41,23.41,0,0,0,2.68-1.54c6.54-4.4,11-9,12.47-12.21C93,12,93.91,1.72,90.9,2c-3.42.27-.31,6.94-5.1,12.15-2.87,3.12-7.63,6.87-15.37,9.64A29.37,29.37,0,0,0,75.92,29.92Z"/><path class="cls-4" d="M20.32,72.08l-.25-.1.25.1,0-.06c7.5-23.28,19.14-30,31.05-34.07,2.34-.8,5.72-1.83,8.14-2.55a44.12,44.12,0,0,1-4.19-7.93l-.13-.34-2.07.21a66.5,66.5,0,0,0-9.6,1.55,59.14,59.14,0,0,0-12,4.25l-.87.43-.16.08A56.36,56.36,0,0,0,3.91,63h0C.45,71.9,17.71,79.8,20.32,72.08Z"/><polygon class="cls-5" points="3.91 62.98 3.91 62.98 3.91 62.98 3.91 62.98"/><path class="cls-5" d="M18.4,84a37.71,37.71,0,0,1,1.92-11.92h0C17.71,79.8.45,71.9,3.91,63a56.18,56.18,0,0,0,51.42,76.77l-.45-18A37.75,37.75,0,0,1,18.4,84Z"/><path class="cls-6" d="M80.71,33.11l-.4-.2Z"/><path class="cls-7" d="M80.71,33.11l-.4-.2Z"/><path class="cls-8" d="M80.9,33.2l-.19-.09-.4-.2.4.2.14.06a29.75,29.75,0,0,1-4.93-3.26,29.27,29.27,0,0,1-5.5-6.16,33,33,0,0,1-5.21-14.4,10,10,0,0,0-6-7.81S51.87-1.3,39.81.73,23.71,3.87,18.13,6s-3.33,6.57-2.75,7.74a12.94,12.94,0,0,0,1.07,1.93,3.27,3.27,0,0,1,1.22-2.71c.89-.49,1.72.21,2.59.95a7.93,7.93,0,0,0,2.49,1.61c3,.94,6.86.63,9.67.39a23.17,23.17,0,0,0,3.13-.51A18,18,0,0,1,41,14.87a20.94,20.94,0,0,1,3.75.78c4.87,1.3,8.44,1.9,10-2.25a1,1,0,0,1,1.84.69c-2.31,6.14-8.35,4.53-12.35,3.46a19.8,19.8,0,0,0-3.37-.72,15.86,15.86,0,0,0-4.93.45,24.75,24.75,0,0,1-3.38.54c-3,.25-7,.58-10.42-.48a9.59,9.59,0,0,1-3.17-2L18.52,15a9.68,9.68,0,0,0-.11,2.34,2.86,2.86,0,0,0,1,1.51c1,.83,6.33,1.9,8.52,2s22.35,3.73,26.23,3c0,0,.37,1.26,1.09,3.23l.13.34c.8,2.16,3.32,4.69,4.9,7.72l-.71.21,0,0a45,45,0,0,0,8.18,9.68s3.16,2.7,5.63,4.61C77.62,53,93.91,68.71,93.91,84a37.76,37.76,0,0,1-37.76,37.76l-1.28,0,.45,18h.83a56.15,56.15,0,0,0,56.15-56.15C112.31,61.48,100.13,44.73,80.9,33.2Z"/><path class="cls-9" d="M60.25,35.19c-1.58-3-4.1-5.56-4.9-7.72a44.12,44.12,0,0,0,4.19,7.93Z"/><path class="cls-10" d="M60.25,35.19c-1.58-3-4.1-5.56-4.9-7.72a44.12,44.12,0,0,0,4.19,7.93Z"/><path class="cls-11" d="M80.9,33.19l0,0,0,0Z"/><path class="cls-11" d="M80.9,33.2l0,0-.14-.06Z"/><circle class="cls-6" cx="20.32" cy="72.08" transform="translate(-32.58 19.07) rotate(-29.2)"/><path class="cls-6" d="M20.07,72l.25.1h0Z"/><path class="cls-12" d="M18.52,15l.47.39a9.59,9.59,0,0,0,3.17,2c3.38,1.06,7.45.72,10.42.48A24.75,24.75,0,0,0,36,17.28a15.86,15.86,0,0,1,4.93-.45,19.8,19.8,0,0,1,3.37.72c4,1.07,10,2.68,12.35-3.46a1,1,0,0,0-1.84-.69c-1.56,4.15-5.13,3.55-10,2.25A20.94,20.94,0,0,0,41,14.87a18,18,0,0,0-5.47.49,23.17,23.17,0,0,1-3.13.51c-2.81.23-6.66.55-9.67-.39a7.93,7.93,0,0,1-2.49-1.61c-.88-.74-1.7-1.43-2.59-.95a3.27,3.27,0,0,0-1.22,2.71,5,5,0,0,0,1.95,1.64v0A9.68,9.68,0,0,1,18.52,15Z"/><circle class="cls-12" cx="41.38" cy="6.91" r="3.62" transform="translate(-0.43 3.42) rotate(-4.71)"/></g></g></svg>