<?xml version="1.0" encoding="utf-8"?>
<!-- Generator: Adobe Illustrator 21.0.2, SVG Export Plug-In . SVG Version: 6.00 Build 0)  -->
<svg version="1.1" id="Layer_1" xmlns="http://www.w3.org/2000/svg" xmlns:xlink="http://www.w3.org/1999/xlink" x="0px" y="0px"
	 viewBox="0 0 100 125" style="enable-background:new 0 0 100 125;" xml:space="preserve">
<style type="text/css">
	.st0{fill:#603913;}
</style>
<path class="st0" d="M69.4,56c0,0-0.1,0-0.1,0c-0.4,0-0.9-0.2-1.2-0.5c-0.3-0.3-0.5-0.8-0.5-1.3c0-0.1,0-0.2,0-0.3
	c0-0.1,0-0.2,0-0.3V36.1c0-1,0.8-1.7,1.7-1.7c6,0,10.8,4.9,10.8,10.8C80.3,51.1,75.4,56,69.4,56z M71.2,38v14.3
	c3.2-0.8,5.6-3.7,5.6-7.1C76.8,41.7,74.4,38.8,71.2,38z"/>
<path class="st0" d="M30.6,56c-6,0-10.8-4.9-10.8-10.8c0-6,4.9-10.8,10.8-10.8c1,0,1.7,0.8,1.7,1.7v17.5c0,0.1,0,0.2,0,0.3
	c0,0.1,0,0.2,0,0.3c0,0.5-0.2,0.9-0.5,1.3c-0.3,0.3-0.7,0.5-1.2,0.5C30.6,56,30.6,56,30.6,56z M28.8,38c-3.2,0.8-5.6,3.7-5.6,7.1
	c0,3.5,2.4,6.4,5.6,7.1V38z"/>
<path class="st0" d="M59.4,52.1c0,0,0.4,6.8-9.4,6.8h0c-9.8,0-9.4-6.8-9.4-6.8"/>
<path class="st0" d="M67.8,90H32.2c-0.5,0-1-0.2-1.3-0.6c-0.3-0.4-0.5-0.8-0.4-1.3c0.8-8.2,6.7-15.1,14.7-17.2
	c0.5-0.1,1.1,0,1.5,0.3c0.4,0.3,0.7,0.8,0.7,1.4v1.2c0,1.5,1.2,2.6,2.6,2.6s2.6-1.2,2.6-2.6v-1.2c0-0.5,0.2-1,0.7-1.4
	c0.4-0.3,1-0.4,1.5-0.3c8,2,13.9,8.9,14.7,17.2c0,0.5-0.1,1-0.4,1.3C68.7,89.8,68.3,90,67.8,90z M34.2,86.5h31.5
	C64.6,81.3,61,77,56,75c-0.6,2.8-3,4.9-6,4.9s-5.5-2.1-6-4.9C39,77,35.4,81.3,34.2,86.5z"/>
<path class="st0" d="M50,79.9c-3.4,0-6.1-2.7-6.1-6.1v-5.1c0-1,0.8-1.7,1.7-1.7h8.8c1,0,1.7,0.8,1.7,1.7v5.1
	C56.1,77.2,53.4,79.9,50,79.9z M47.4,70.4v3.4c0,1.5,1.2,2.6,2.6,2.6s2.6-1.2,2.6-2.6v-3.4C52.6,70.4,47.4,70.4,47.4,70.4z"/>
<path class="st0" d="M50,34.2c-14.4,0-19.8-5.1-20-5.4l2.4-2.5c0,0,4.8,4.4,17.6,4.4c12.8,0,17.5-4.3,17.6-4.4l2.4,2.5
	C69.8,29,64.4,34.2,50,34.2z"/>
<path class="st0" d="M54.4,70.4h-8.8c-9.3,0-16.8-7.5-16.8-16.8V32c0-1.7,0.2-3.3,0.7-4.9c0.2-0.6,0.7-1,1.2-1.2
	c0.6-0.1,1.2,0,1.6,0.5c0,0,4.7,4.3,17.5,4.3c12.8,0,17.5-4.3,17.6-4.4c0.4-0.4,1-0.6,1.6-0.4c0.6,0.1,1.1,0.6,1.2,1.2
	c0.5,1.6,0.7,3.2,0.7,4.9v21.6C71.2,62.9,63.6,70.4,54.4,70.4z M32.4,30.5c-0.1,0.5-0.1,1-0.1,1.5v21.6c0,7.3,6,13.3,13.3,13.3h8.8
	c7.3,0,13.3-6,13.3-13.3V32c0-0.5,0-1-0.1-1.5c-2.8,1.6-8.3,3.7-17.6,3.7C40.7,34.2,35.2,32.1,32.4,30.5z"/>
<path class="st0" d="M50,10c-18.5,0-33.5,15-33.5,33.5c0,14.6,9.5,27.4,23.2,31.9c1.8-1.2,3.8-2.2,5.9-2.7v1.2c0,0.2,0,0.4,0,0.6
	c0.1,0,0.3-0.1,0.4-0.1c0.8-0.2,1.3-0.9,1.3-1.7v-2.2h5.3v2.2c0,0.8,0.5,1.5,1.3,1.7c0.1,0,0.3,0.1,0.4,0.1c0-0.2,0-0.4,0-0.6v-1.2
	c2.2,0.5,4.2,1.5,5.9,2.7C74,70.9,83.5,58,83.5,43.5C83.5,25,68.5,10,50,10z M69.4,54.2C69.4,54.2,69.4,54.2,69.4,54.2
	c-0.3,8-6.9,14.4-15,14.4h-8.8c-8.1,0-14.7-6.4-15-14.4c0,0,0,0,0,0c-5,0-9.1-4.1-9.1-9.1c0-5,4.1-9.1,9.1-9.1V32
	c0-1.5,0.2-3,0.7-4.4c0,0,4.9,4.9,18.8,4.9c13.9,0,18.8-4.9,18.8-4.9c0.4,1.4,0.7,2.9,0.7,4.4v4.1c5,0,9.1,4.1,9.1,9.1
	C78.5,50.2,74.5,54.2,69.4,54.2z"/>
<circle class="st0" cx="40.6" cy="40.2" r="2.8"/>
<circle class="st0" cx="59.4" cy="40.2" r="2.8"/>
</svg>
