<?xml version="1.0" encoding="utf-8"?>
<!-- Generator: Adobe Illustrator 21.0.2, SVG Export Plug-In . SVG Version: 6.00 Build 0)  -->
<svg version="1.1" id="Layer_1" xmlns="http://www.w3.org/2000/svg" xmlns:xlink="http://www.w3.org/1999/xlink" x="0px" y="0px"
	 viewBox="0 0 100 125" style="enable-background:new 0 0 100 125;" xml:space="preserve">
<style type="text/css">
	.st0{fill:#603913;}
</style>
<path class="st0" d="M69.6,56c0,0-0.1,0-0.1,0c-0.4,0-0.9-0.2-1.2-0.5c-0.3-0.3-0.5-0.8-0.5-1.3c0-0.1,0-0.2,0-0.3
	c0-0.1,0-0.2,0-0.3V36.1c0-1,0.8-1.7,1.8-1.7c6,0,10.9,4.9,10.9,10.8S75.6,56,69.6,56z M71.3,38v14.3c3.2-0.8,5.7-3.7,5.7-7.1
	C77,41.7,74.6,38.8,71.3,38z"/>
<path class="st0" d="M30.4,56c-6,0-10.9-4.9-10.9-10.8s4.9-10.8,10.9-10.8c1,0,1.8,0.8,1.8,1.7v17.5c0,0.1,0,0.2,0,0.3
	c0,0.1,0,0.2,0,0.3c0,0.5-0.2,0.9-0.5,1.3C31.4,55.8,31,56,30.5,56C30.5,56,30.4,56,30.4,56z M28.7,38c-3.2,0.8-5.7,3.7-5.7,7.1
	s2.4,6.4,5.7,7.1V38z"/>
<path class="st0" d="M59.5,52.1c0,0,0.4,6.8-9.5,6.8h0c-9.9,0-9.5-6.8-9.5-6.8"/>
<path class="st0" d="M67.9,90H32.1c-0.5,0-1-0.2-1.3-0.6c-0.3-0.4-0.5-0.8-0.5-1.3c0.8-8.2,6.7-15.1,14.8-17.2
	c0.5-0.1,1.1,0,1.5,0.3c0.4,0.3,0.7,0.8,0.7,1.4v1.2c0,1.5,1.2,2.6,2.7,2.6s2.7-1.2,2.7-2.6v-1.2c0-0.5,0.2-1,0.7-1.4
	c0.4-0.3,1-0.4,1.5-0.3c8.1,2,14,8.9,14.8,17.2c0,0.5-0.1,1-0.5,1.3C68.9,89.8,68.4,90,67.9,90z M34.1,86.5h31.8
	c-1.1-5.2-4.8-9.6-9.8-11.6c-0.6,2.8-3.1,4.9-6.1,4.9s-5.5-2.1-6.1-4.9C38.9,77,35.2,81.3,34.1,86.5z"/>
<path class="st0" d="M50,79.9c-3.4,0-6.2-2.7-6.2-6.1v-5.1c0-1,0.8-1.7,1.8-1.7h8.8c1,0,1.8,0.8,1.8,1.7v5.1
	C56.2,77.2,53.4,79.9,50,79.9z M47.3,70.4v3.4c0,1.5,1.2,2.6,2.7,2.6s2.7-1.2,2.7-2.6v-3.4C52.7,70.4,47.3,70.4,47.3,70.4z"/>
<path class="st0" d="M54.4,70.4h-8.8c-9.3,0-16.9-7.5-16.9-16.8V32c0-3.7,1.2-7.2,3.5-10.2c0.4-0.5,0.9-0.7,1.5-0.7s1.1,0.4,1.4,0.9
	c1.3,2.4,3.7,3.9,6.6,3.9c0.6,0,1.5,0,2.5-0.1c1.5,0,3.3-0.1,5.3-0.1c7.9,0,18.7,0.7,21.6,6.8c0.2,0.3,0.3,0.6,0.3,1v19.9
	C71.3,62.9,63.8,70.4,54.4,70.4z M33.6,26c-0.9,1.8-1.4,3.9-1.4,6v21.6c0,7.3,6,13.3,13.4,13.3h8.8c7.4,0,13.4-6,13.4-13.3V34.1
	c-1.1-2.3-5.3-4.8-18.4-4.8c-1.9,0-3.7,0.1-5.2,0.1c-1,0-1.9,0.1-2.6,0.1C38.5,29.5,35.6,28.2,33.6,26z"/>
<path class="st0" d="M46.5,43.7H43c0-1.3-1.1-2.4-2.4-2.4c-1.3,0-2.4,1.1-2.4,2.4h-3.5c0-3.2,2.7-5.9,5.9-5.9
	C43.8,37.9,46.5,40.5,46.5,43.7z"/>
<path class="st0" d="M65.4,43.7h-3.5c0-1.3-1.1-2.4-2.4-2.4c-1.3,0-2.4,1.1-2.4,2.4h-3.5c0-3.2,2.7-5.9,5.9-5.9
	C62.8,37.9,65.4,40.5,65.4,43.7z"/>
<path class="st0" d="M45.6,66.9c-7.2,0-13.1-5.6-13.4-12.8c0-0.5-0.2-0.9-0.6-1.2c-0.3-0.3-0.8-0.4-1.2-0.4c-2.3,0-4.4-1-5.8-2.8
	c-0.5-0.6-1.3-0.8-2-0.5c-0.7,0.3-1.2,1-1.1,1.8c0.7,6.6,1.6,11,2.8,13.6c2.5,5.4-1.4,10.9-2.6,11.6c-0.6,0.1-1.1,0.5-1.3,1
	c-0.3,0.6-0.2,1.3,0.3,1.9c0.1,0.2,3.4,3.8,8.6,3.8c0,0,0,0,0,0c2.8,0,5.5-1,8.2-3.1c0.1-0.1,0.2-0.2,0.3-0.2
	c2.2-2.5,5.1-4.3,8.3-5.1c0.8-0.2,1.3-0.9,1.3-1.7v-4C47.3,67.7,46.5,66.9,45.6,66.9z"/>
<path class="st0" d="M79.6,77.1c-0.2-0.5-0.7-0.9-1.3-1c-1.2-0.7-5.1-6.2-2.6-11.6c1.2-2.5,2.1-7,2.8-13.6c0.1-0.8-0.4-1.5-1.1-1.8
	s-1.6-0.1-2,0.5c-1.4,1.8-3.5,2.8-5.8,2.8c-0.4,0-0.9,0.1-1.2,0.4c-0.4,0.3-0.6,0.8-0.6,1.2c-0.3,7.1-6.2,12.8-13.4,12.8
	c-1,0-1.8,0.8-1.8,1.7v4c0,0.8,0.5,1.5,1.3,1.7c3.3,0.8,6.1,2.6,8.3,5.1c0.1,0.1,0.2,0.2,0.3,0.2c2.7,2.1,5.5,3.1,8.2,3.1
	c5.2,0,8.4-3.7,8.6-3.8C79.8,78.4,79.9,77.7,79.6,77.1z"/>
<path class="st0" d="M77.5,16.3c-3.4-4.2-9.8-6.3-19.2-6.3c-11.5,0-18,0.2-21.8,1.1c-4.2,1-5.8,3-5.8,7c0,6.5,4.7,11.4,11,11.4
	c0.7,0,1.5,0,2.6-0.1c1.4,0,3.2-0.1,5.2-0.1c13.2,0,17.3,2.6,18.4,4.8v1.9c0,1,0.8,1.7,1.8,1.7c2.7,0,5.2,1.4,6.5,3.8
	c0.3,0.6,0.9,0.9,1.5,0.9c0.1,0,0.3,0,0.4,0c0.8-0.2,1.3-0.8,1.4-1.6c0.4-7.7,0.5-14.2,0.5-16.3C80,23.5,80.4,19.8,77.5,16.3z"/>
<path class="st0" d="M35.1,22.1c-0.4-0.7-0.6-1.5-0.8-2.4c-0.1-0.8-0.9-1.4-1.7-1.4c-10.1,0-11.7,5.4-11.9,7.7c0,0.1,0,0.1,0,0.2
	v14.5c0,0.8,0.5,1.5,1.3,1.7c0.1,0,0.3,0.1,0.4,0.1c0.6,0,1.2-0.3,1.5-0.9c1.3-2.3,3.8-3.8,6.5-3.8c1,0,1.8-0.8,1.8-1.7V32
	c0-2.9,1-5.7,2.8-8.1C35.3,23.4,35.4,22.7,35.1,22.1z"/>
</svg>
