<?xml version="1.0" encoding="utf-8"?>
<!-- Generator: Adobe Illustrator 21.0.2, SVG Export Plug-In . SVG Version: 6.00 Build 0)  -->
<svg version="1.1" id="Layer_1" xmlns="http://www.w3.org/2000/svg" xmlns:xlink="http://www.w3.org/1999/xlink" x="0px" y="0px"
	 viewBox="0 0 100 125" style="enable-background:new 0 0 100 125;" xml:space="preserve">
<style type="text/css">
	.st0{fill:#603913;}
</style>
<path class="st0" d="M66.2,56c0,0-0.1,0-0.1,0c-0.4,0-0.9-0.2-1.2-0.5c-0.3-0.3-0.5-0.8-0.5-1.3c0-0.1,0-0.2,0-0.3
	c0-0.1,0-0.2,0-0.3V36.1c0-1,0.8-1.7,1.8-1.7c6,0,10.9,4.9,10.9,10.8S72.2,56,66.2,56z M68,38v14.3c3.2-0.8,5.7-3.7,5.7-7.1
	C73.6,41.7,71.2,38.8,68,38z"/>
<path class="st0" d="M26.9,56c-6,0-10.9-4.9-10.9-10.8s4.9-10.8,10.9-10.8c1,0,1.8,0.8,1.8,1.7v17.5c0,0.1,0,0.2,0,0.3
	c0,0.1,0,0.2,0,0.3c0,0.5-0.2,0.9-0.5,1.3c-0.3,0.3-0.7,0.5-1.2,0.5C27,56,27,56,26.9,56z M25.2,38c-3.2,0.8-5.7,3.7-5.7,7.1
	s2.4,6.4,5.7,7.1V38z"/>
<path class="st0" d="M64.5,90H28.6c-0.5,0-1-0.2-1.3-0.6c-0.3-0.4-0.5-0.8-0.5-1.3c0.8-8.2,6.7-15.1,14.9-17.2
	c0.5-0.1,1.1,0,1.5,0.3c0.4,0.3,0.7,0.8,0.7,1.4v1.2c0,1.5,1.2,2.6,2.7,2.6c1.5,0,2.7-1.2,2.7-2.6v-1.2c0-0.5,0.2-1,0.7-1.4
	s1-0.4,1.5-0.3c8.1,2,14.1,8.9,14.8,17.2c0,0.5-0.1,1-0.5,1.3C65.5,89.8,65,90,64.5,90z M30.6,86.5h31.8c-1.1-5.2-4.8-9.6-9.8-11.6
	c-0.6,2.8-3.1,4.9-6.1,4.9s-5.5-2.1-6.1-4.9C35.5,77,31.8,81.3,30.6,86.5z"/>
<path class="st0" d="M46.6,79.9c-3.4,0-6.2-2.7-6.2-6.1v-5.1c0-1,0.8-1.7,1.8-1.7H51c1,0,1.8,0.8,1.8,1.7v5.1
	C52.8,77.2,50,79.9,46.6,79.9z M43.9,70.4v3.4c0,1.5,1.2,2.6,2.7,2.6c1.5,0,2.7-1.2,2.7-2.6v-3.4C49.2,70.4,43.9,70.4,43.9,70.4z"/>
<g>
	<path class="st0" d="M27.3,58.8c-0.2,0-0.5-0.1-0.7-0.2c-0.5-0.2-0.9-0.7-1-1.2c-0.3-1.3-0.5-2.6-0.5-3.9V32c0-1.4,0.2-2.8,0.5-4.1
		c0.2-0.9,1.1-1.4,2-1.3l0.2,0c2.5,0.4,27.3,3.9,38.6,5.6c0.9,0.1,1.5,0.9,1.5,1.7v19.7c0,1.3-0.2,2.6-0.5,3.9c-0.1,0.5-0.5,1-1,1.2
		c-0.5,0.2-1.1,0.2-1.5,0c-2.4-1.2-5-3.4-6.6-5.5c-1.6-2-4.1-2.2-5.1-2.2c-1.3,0-2.2,0.3-2.7,0.6c-0.7,0.4-1.7,1.5-2.4,2.9
		c-0.3,0.6-0.9,1-1.6,1c-0.7,0-1.3-0.4-1.6-1c-0.7-1.4-1.7-2.5-2.4-2.9c-0.5-0.3-1.4-0.6-2.7-0.6c-1,0-3.5,0.2-5.1,2.2
		c-1.6,2.1-4.2,4.2-6.6,5.5C27.9,58.8,27.6,58.8,27.3,58.8z M28.8,30.3c-0.1,0.6-0.1,1.2-0.1,1.7v21.6c0,0.2,0,0.4,0,0.6
		c1.4-1,2.6-2.2,3.3-3.1c1.8-2.3,4.6-3.6,7.8-3.6c1.8,0,3.5,0.4,4.6,1.2c0.7,0.5,1.4,1.1,2.1,1.9c0.6-0.8,1.4-1.4,2.1-1.9
		c1.2-0.8,2.9-1.2,4.6-1.2c3.2,0,6.1,1.3,7.8,3.6c0.7,0.9,1.9,2.1,3.3,3.1c0-0.2,0-0.4,0-0.6V35.4C53.9,33.9,34.6,31.1,28.8,30.3z"
		/>
</g>
<g>
	<path class="st0" d="M51,70.4h-8.9c-3.5,0-6.9-1.1-9.8-3.1c-0.6-0.4-0.9-1.2-0.7-1.9c0.2-0.7,0.9-1.2,1.6-1.2l0.1,0
		c0.1,0,0.3,0,0.4,0c7.7-0.4,10.3-3.2,11.2-4.8c0.3-0.6,0.9-0.9,1.5-0.9s1.2,0.3,1.5,0.9c0.9,1.6,3.5,4.4,11.2,4.8
		c0.1,0,0.3,0,0.4,0l0.2,0c0.8,0,1.4,0.5,1.6,1.2c0.2,0.7,0,1.5-0.7,1.9C57.9,69.3,54.5,70.4,51,70.4z M39.8,66.7
		c0.8,0.1,1.6,0.2,2.4,0.2H51c0.8,0,1.6-0.1,2.4-0.2c-3.3-0.9-5.5-2.3-6.8-3.7C45.2,64.4,43.1,65.8,39.8,66.7z"/>
</g>
<path class="st0" d="M43,43.7h-3.5c0-1.3-1.1-2.4-2.4-2.4c-1.3,0-2.4,1.1-2.4,2.4h-3.5c0-3.2,2.7-5.9,6-5.9
	C40.4,37.9,43,40.5,43,43.7z"/>
<path class="st0" d="M62,43.7h-3.5c0-1.3-1.1-2.4-2.4-2.4c-1.3,0-2.4,1.1-2.4,2.4h-3.5c0-3.2,2.7-5.9,6-5.9
	C59.4,37.9,62,40.5,62,43.7z"/>
<path class="st0" d="M72.2,18c-7.9-5.1-16.4-8-23.3-8c-7.6,0-14.8,0-20,0.5c-2.9,0.3-9.6,1-9.6,5.3V16c0,2.2,0,5.4,1.2,8.3
	C22,28,25.2,30,29.6,30c2,0.3,27.2,3.9,38.7,5.6c3.9,0.6,6.6,0.8,8.6,0.8l0,0c2.7,0,4.4-0.5,5.6-1.5c1.4-1.3,1.6-3.1,1.6-4.6
	C84,26.8,77.6,21.5,72.2,18z"/>
<path class="st0" d="M72.7,55.9c-0.7-0.4-1.6-0.2-2.1,0.4c-0.2,0.2-0.5,0.5-1.1,0.5c-2.3,0-6.3-2.8-8.3-5.4
	c-1.8-2.3-4.6-3.6-7.8-3.6c-1.8,0-3.5,0.4-4.6,1.2c-0.7,0.5-1.4,1.1-2.1,1.9c-0.6-0.8-1.4-1.4-2.1-1.9c-1.2-0.8-2.9-1.2-4.6-1.2
	c-3.2,0-6.1,1.3-7.8,3.6c-2,2.5-5.9,5.4-8.3,5.4c-0.7,0-1-0.2-1.1-0.5c-0.5-0.6-1.4-0.8-2.1-0.4c-0.7,0.4-1.1,1.2-0.9,1.9
	C20.4,61.3,24.2,68,33,68c0.3,0,0.7,0,1.1,0c6.9-0.4,10.6-2.6,12.5-4.6c2,2,5.7,4.2,12.5,4.6c0.4,0,0.7,0,1.1,0
	c8.7,0,12.6-6.7,13.4-10.2C73.8,57,73.4,56.2,72.7,55.9z"/>
</svg>
