<?xml version="1.0" encoding="utf-8"?>
<!-- Generator: Adobe Illustrator 21.0.2, SVG Export Plug-In . SVG Version: 6.00 Build 0)  -->
<svg version="1.1" id="Layer_1" xmlns="http://www.w3.org/2000/svg" xmlns:xlink="http://www.w3.org/1999/xlink" x="0px" y="0px"
	 viewBox="0 0 333 201" style="enable-background:new 0 0 333 201;" xml:space="preserve">
<style type="text/css">
	.st0{fill:#603913;}
</style>
<path class="st0" d="M69.6,132c0,0-0.1,0-0.1,0c-0.4,0-0.9-0.2-1.2-0.5c-0.3-0.3-0.5-0.8-0.5-1.3c0-0.1,0-0.2,0-0.3
	c0-0.1,0-0.2,0-0.3v-17.6c0-1,0.8-1.7,1.8-1.7c6,0,10.9,4.9,10.9,10.8S75.6,132,69.6,132z M71.3,114v14.3c3.2-0.8,5.7-3.7,5.7-7.1
	C77,117.7,74.6,114.8,71.3,114z"/>
<path class="st0" d="M30.4,132c-6,0-10.9-4.9-10.9-10.8s4.9-10.8,10.9-10.8c1,0,1.8,0.8,1.8,1.7v17.5c0,0.1,0,0.2,0,0.3
	c0,0.1,0,0.2,0,0.3c0,0.5-0.2,0.9-0.5,1.3c-0.3,0.3-0.7,0.5-1.2,0.5C30.5,132,30.4,132,30.4,132z M28.7,114
	c-3.2,0.8-5.7,3.7-5.7,7.1s2.4,6.4,5.7,7.1V114z"/>
<path class="st0" d="M59.5,128.1c0,0,0.4,6.8-9.5,6.8h0c-9.9,0-9.5-6.8-9.5-6.8"/>
<path class="st0" d="M67.9,166H32.1c-0.5,0-1-0.2-1.3-0.6c-0.3-0.4-0.5-0.8-0.5-1.3c0.8-8.2,6.7-15.1,14.8-17.2
	c0.5-0.1,1.1,0,1.5,0.3c0.4,0.3,0.7,0.8,0.7,1.4v1.2c0,1.5,1.2,2.6,2.7,2.6s2.7-1.2,2.7-2.6v-1.2c0-0.5,0.2-1,0.7-1.4
	c0.4-0.3,1-0.4,1.5-0.3c8.1,2,14,8.9,14.8,17.2c0,0.5-0.1,1-0.5,1.3C68.9,165.8,68.4,166,67.9,166z M34.1,162.5h31.8
	c-1.1-5.2-4.8-9.6-9.8-11.6c-0.6,2.8-3.1,4.9-6.1,4.9s-5.5-2.1-6.1-4.9C38.9,153,35.2,157.3,34.1,162.5z"/>
<path class="st0" d="M50,155.9c-3.4,0-6.2-2.7-6.2-6.1v-5.1c0-1,0.8-1.7,1.8-1.7h8.8c1,0,1.8,0.8,1.8,1.7v5.1
	C56.2,153.2,53.4,155.9,50,155.9z M47.3,146.4v3.4c0,1.5,1.2,2.6,2.7,2.6s2.7-1.2,2.7-2.6v-3.4C52.7,146.4,47.3,146.4,47.3,146.4z"
	/>
<path class="st0" d="M54.4,146.4h-8.8c-9.3,0-16.9-7.5-16.9-16.8V108c0-3.7,1.2-7.2,3.5-10.2c0.4-0.5,0.9-0.7,1.5-0.7
	s1.1,0.4,1.4,0.9c1.3,2.4,3.7,3.9,6.6,3.9c0.6,0,1.5,0,2.5-0.1c1.5,0,3.3-0.1,5.3-0.1c7.9,0,18.7,0.7,21.6,6.8
	c0.2,0.3,0.3,0.6,0.3,1v19.9C71.3,138.9,63.8,146.4,54.4,146.4z M33.6,102c-0.9,1.8-1.4,3.9-1.4,6v21.6c0,7.3,6,13.3,13.4,13.3h8.8
	c7.4,0,13.4-6,13.4-13.3v-19.5c-1.1-2.3-5.3-4.8-18.4-4.8c-1.9,0-3.7,0.1-5.2,0.1c-1,0-1.9,0.1-2.6,0.1
	C38.5,105.5,35.6,104.2,33.6,102z"/>
<path class="st0" d="M46.5,119.7H43c0-1.3-1.1-2.4-2.4-2.4c-1.3,0-2.4,1.1-2.4,2.4h-3.5c0-3.2,2.7-5.9,5.9-5.9
	C43.8,113.9,46.5,116.5,46.5,119.7z"/>
<path class="st0" d="M65.4,119.7h-3.5c0-1.3-1.1-2.4-2.4-2.4c-1.3,0-2.4,1.1-2.4,2.4h-3.5c0-3.2,2.7-5.9,5.9-5.9
	C62.8,113.9,65.4,116.5,65.4,119.7z"/>
<path class="st0" d="M45.6,142.9c-7.2,0-13.1-5.6-13.4-12.8c0-0.5-0.2-0.9-0.6-1.2c-0.3-0.3-0.8-0.4-1.2-0.4c-2.3,0-4.4-1-5.8-2.8
	c-0.5-0.6-1.3-0.8-2-0.5c-0.7,0.3-1.2,1-1.1,1.8c0.7,6.6,1.6,11,2.8,13.6c2.5,5.4-1.4,10.9-2.6,11.6c-0.6,0.1-1.1,0.5-1.3,1
	c-0.3,0.6-0.2,1.3,0.3,1.9c0.1,0.2,3.4,3.8,8.6,3.8c0,0,0,0,0,0c2.8,0,5.5-1,8.2-3.1c0.1-0.1,0.2-0.2,0.3-0.2
	c2.2-2.5,5.1-4.3,8.3-5.1c0.8-0.2,1.3-0.9,1.3-1.7v-4C47.3,143.7,46.5,142.9,45.6,142.9z"/>
<path class="st0" d="M79.6,153.1c-0.2-0.5-0.7-0.9-1.3-1c-1.2-0.7-5.1-6.2-2.6-11.6c1.2-2.5,2.1-7,2.8-13.6c0.1-0.8-0.4-1.5-1.1-1.8
	s-1.6-0.1-2,0.5c-1.4,1.8-3.5,2.8-5.8,2.8c-0.4,0-0.9,0.1-1.2,0.4c-0.4,0.3-0.6,0.8-0.6,1.2c-0.3,7.1-6.2,12.8-13.4,12.8
	c-1,0-1.8,0.8-1.8,1.7v4c0,0.8,0.5,1.5,1.3,1.7c3.3,0.8,6.1,2.6,8.3,5.1c0.1,0.1,0.2,0.2,0.3,0.2c2.7,2.1,5.5,3.1,8.2,3.1
	c5.2,0,8.4-3.7,8.6-3.8C79.8,154.4,79.9,153.7,79.6,153.1z"/>
<path class="st0" d="M77.5,92.3c-3.4-4.2-9.8-6.3-19.2-6.3c-11.5,0-18,0.2-21.8,1.1c-4.2,1-5.8,3-5.8,7c0,6.5,4.7,11.4,11,11.4
	c0.7,0,1.5,0,2.6-0.1c1.4,0,3.2-0.1,5.2-0.1c13.2,0,17.3,2.6,18.4,4.8v1.9c0,1,0.8,1.7,1.8,1.7c2.7,0,5.2,1.4,6.5,3.8
	c0.3,0.6,0.9,0.9,1.5,0.9c0.1,0,0.3,0,0.4,0c0.8-0.2,1.3-0.8,1.4-1.6c0.4-7.7,0.5-14.2,0.5-16.3C80,99.5,80.4,95.8,77.5,92.3z"/>
<path class="st0" d="M35.1,98.1c-0.4-0.7-0.6-1.5-0.8-2.4c-0.1-0.8-0.9-1.4-1.7-1.4c-10.1,0-11.7,5.4-11.9,7.7c0,0.1,0,0.1,0,0.2
	v14.5c0,0.8,0.5,1.5,1.3,1.7c0.1,0,0.3,0.1,0.4,0.1c0.6,0,1.2-0.3,1.5-0.9c1.3-2.3,3.8-3.8,6.5-3.8c1,0,1.8-0.8,1.8-1.7V108
	c0-2.9,1-5.7,2.8-8.1C35.3,99.4,35.4,98.7,35.1,98.1z"/>
<path class="st0" d="M165.9,131c0,0-0.1,0-0.1,0c-0.4,0-0.9-0.2-1.2-0.5c-0.3-0.3-0.5-0.8-0.5-1.3c0-0.1,0-0.2,0-0.3
	c0-0.1,0-0.2,0-0.3v-17.5c0-1,0.8-1.7,1.7-1.7c6,0,10.8,4.9,10.8,10.8C176.8,126.1,171.9,131,165.9,131z M167.7,113v14.3
	c3.2-0.8,5.6-3.7,5.6-7.1C173.3,116.7,170.9,113.8,167.7,113z"/>
<path class="st0" d="M127.1,131c-6,0-10.8-4.9-10.8-10.8c0-6,4.9-10.8,10.8-10.8c1,0,1.7,0.8,1.7,1.7v17.5c0,0.1,0,0.2,0,0.3
	c0,0.1,0,0.2,0,0.3c0,0.5-0.2,0.9-0.5,1.3c-0.3,0.3-0.7,0.5-1.2,0.5C127.1,131,127.1,131,127.1,131z M125.3,113
	c-3.2,0.8-5.6,3.7-5.6,7.1c0,3.5,2.4,6.4,5.6,7.1V113z"/>
<path class="st0" d="M155.9,127.1c0,0,0.4,6.8-9.4,6.8h0c-9.8,0-9.4-6.8-9.4-6.8"/>
<path class="st0" d="M164.3,165h-35.6c-0.5,0-1-0.2-1.3-0.6c-0.3-0.4-0.5-0.8-0.4-1.3c0.8-8.2,6.7-15.1,14.7-17.2
	c0.5-0.1,1.1,0,1.5,0.3c0.4,0.3,0.7,0.8,0.7,1.4v1.2c0,1.5,1.2,2.6,2.6,2.6c1.5,0,2.6-1.2,2.6-2.6v-1.2c0-0.5,0.2-1,0.7-1.4
	c0.4-0.3,1-0.4,1.5-0.3c8,2,13.9,8.9,14.7,17.2c0,0.5-0.1,1-0.4,1.3C165.2,164.8,164.8,165,164.3,165z M130.7,161.5h31.5
	c-1.1-5.2-4.8-9.6-9.7-11.6c-0.6,2.8-3,4.9-6,4.9s-5.5-2.1-6-4.9C135.5,152,131.8,156.3,130.7,161.5z"/>
<path class="st0" d="M146.5,154.9c-3.4,0-6.1-2.7-6.1-6.1v-5.1c0-1,0.8-1.7,1.7-1.7h8.8c1,0,1.7,0.8,1.7,1.7v5.1
	C152.6,152.2,149.9,154.9,146.5,154.9z M143.8,145.4v3.4c0,1.5,1.2,2.6,2.6,2.6c1.5,0,2.6-1.2,2.6-2.6v-3.4
	C149.1,145.4,143.8,145.4,143.8,145.4z"/>
<path class="st0" d="M146.5,109.2c-14.4,0-19.8-5.1-20-5.4l2.4-2.5c0,0,4.8,4.4,17.6,4.4c12.8,0,17.5-4.3,17.6-4.4l2.4,2.5
	C166.3,104,160.9,109.2,146.5,109.2z"/>
<path class="st0" d="M150.9,145.4h-8.8c-9.3,0-16.8-7.5-16.8-16.8V107c0-1.7,0.2-3.3,0.7-4.9c0.2-0.6,0.7-1,1.2-1.2
	c0.6-0.1,1.2,0,1.7,0.5c0,0,4.7,4.3,17.5,4.3c12.8,0,17.5-4.3,17.6-4.4c0.4-0.4,1-0.6,1.6-0.4c0.6,0.1,1.1,0.6,1.2,1.2
	c0.5,1.6,0.7,3.2,0.7,4.9v21.6C167.7,137.9,160.1,145.4,150.9,145.4z M128.9,105.5c-0.1,0.5-0.1,1-0.1,1.5v21.6
	c0,7.3,6,13.3,13.3,13.3h8.8c7.3,0,13.3-6,13.3-13.3V107c0-0.5,0-1-0.1-1.5c-2.8,1.6-8.3,3.7-17.6,3.7
	C137.2,109.2,131.7,107.1,128.9,105.5z"/>
<path class="st0" d="M146.5,85C128,85,113,100,113,118.5c0,14.6,9.5,27.4,23.2,31.9c1.8-1.2,3.8-2.2,5.9-2.7v1.2c0,0.2,0,0.4,0,0.6
	c0.1,0,0.3-0.1,0.4-0.1c0.8-0.2,1.3-0.9,1.3-1.7v-2.2h5.3v2.2c0,0.8,0.5,1.5,1.3,1.7c0.1,0,0.3,0.1,0.4,0.1c0-0.2,0-0.4,0-0.6v-1.2
	c2.2,0.5,4.2,1.5,5.9,2.7c13.7-4.4,23.2-17.3,23.2-31.9C180,100,165,85,146.5,85z M165.9,129.2C165.9,129.2,165.9,129.2,165.9,129.2
	c-0.3,8-6.9,14.4-15,14.4h-8.8c-8.1,0-14.7-6.4-15-14.4c0,0,0,0,0,0c-5,0-9.1-4.1-9.1-9.1c0-5,4.1-9.1,9.1-9.1V107
	c0-1.5,0.2-3,0.7-4.4c0,0,4.9,4.9,18.8,4.9c13.9,0,18.8-4.8,18.8-4.9c0.4,1.4,0.7,2.9,0.7,4.4v4.1c5,0,9.1,4.1,9.1,9.1
	C175,125.2,170.9,129.2,165.9,129.2z"/>
<circle class="st0" cx="137.1" cy="115.2" r="2.8"/>
<circle class="st0" cx="155.9" cy="115.2" r="2.8"/>
<path class="st0" d="M257.7,131L257.7,131c-0.5,0-1-0.2-1.3-0.5s-0.5-0.8-0.5-1.3c0-0.1,0-0.2,0-0.3c0-0.1,0-0.2,0-0.3v-17.5
	c0-1,0.8-1.7,1.8-1.7c6,0,10.9,4.9,10.9,10.8C268.6,126.1,263.7,131,257.7,131z M259.5,113v14.3c3.2-0.8,5.7-3.7,5.7-7.1
	C265.1,116.7,262.7,113.8,259.5,113z"/>
<path class="st0" d="M218.4,131c-6,0-10.9-4.9-10.9-10.8c0-5.9,4.9-10.8,10.9-10.8c1,0,1.8,0.8,1.8,1.7v17.5c0,0.1,0,0.2,0,0.3
	c0,0.1,0,0.2,0,0.3c0,0.5-0.2,0.9-0.5,1.3c-0.3,0.3-0.7,0.5-1.2,0.5C218.5,131,218.5,131,218.4,131z M216.7,113
	c-3.2,0.8-5.7,3.7-5.7,7.1c0,3.4,2.4,6.4,5.7,7.1V113z"/>
<path class="st0" d="M256,165h-35.9c-0.5,0-1-0.2-1.3-0.6c-0.3-0.4-0.5-0.8-0.5-1.3c0.8-8.2,6.7-15.1,14.9-17.2
	c0.5-0.1,1.1,0,1.5,0.3c0.4,0.3,0.7,0.8,0.7,1.4v1.2c0,1.5,1.2,2.6,2.7,2.6s2.7-1.2,2.7-2.6v-1.2c0-0.5,0.2-1,0.7-1.4
	c0.5-0.4,1-0.4,1.5-0.3c8.1,2,14.1,8.9,14.8,17.2c0,0.5-0.1,1-0.5,1.3C257,164.8,256.5,165,256,165z M222.1,161.5h31.8
	c-1.1-5.2-4.8-9.6-9.8-11.6c-0.6,2.8-3.1,4.9-6.1,4.9s-5.5-2.1-6.1-4.9C227,152,223.3,156.3,222.1,161.5z"/>
<path class="st0" d="M238.1,154.9c-3.4,0-6.2-2.7-6.2-6.1v-5.1c0-1,0.8-1.7,1.8-1.7h8.8c1,0,1.8,0.8,1.8,1.7v5.1
	C244.3,152.2,241.5,154.9,238.1,154.9z M235.4,145.4v3.4c0,1.5,1.2,2.6,2.7,2.6s2.7-1.2,2.7-2.6v-3.4
	C240.7,145.4,235.4,145.4,235.4,145.4z"/>
<g>
	<path class="st0" d="M218.8,133.8c-0.2,0-0.5-0.1-0.7-0.2c-0.5-0.2-0.9-0.7-1-1.2c-0.3-1.3-0.5-2.6-0.5-3.9V107
		c0-1.4,0.2-2.8,0.5-4.1c0.2-0.9,1.1-1.4,2-1.3h0.2c2.5,0.4,27.3,3.9,38.6,5.6c0.9,0.1,1.5,0.9,1.5,1.7v19.7c0,1.3-0.2,2.6-0.5,3.9
		c-0.1,0.5-0.5,1-1,1.2c-0.5,0.2-1.1,0.2-1.5,0c-2.4-1.2-5-3.4-6.6-5.5c-1.6-2-4.1-2.2-5.1-2.2c-1.3,0-2.2,0.3-2.7,0.6
		c-0.7,0.4-1.7,1.5-2.4,2.9c-0.3,0.6-0.9,1-1.6,1s-1.3-0.4-1.6-1c-0.7-1.4-1.7-2.5-2.4-2.9c-0.5-0.3-1.4-0.6-2.7-0.6
		c-1,0-3.5,0.2-5.1,2.2c-1.6,2.1-4.2,4.2-6.6,5.5C219.4,133.8,219.1,133.8,218.8,133.8z M220.3,105.3c-0.1,0.6-0.1,1.2-0.1,1.7v21.6
		c0,0.2,0,0.4,0,0.6c1.4-1,2.6-2.2,3.3-3.1c1.8-2.3,4.6-3.6,7.8-3.6c1.8,0,3.5,0.4,4.6,1.2c0.7,0.5,1.4,1.1,2.1,1.9
		c0.6-0.8,1.4-1.4,2.1-1.9c1.2-0.8,2.9-1.2,4.6-1.2c3.2,0,6.1,1.3,7.8,3.6c0.7,0.9,1.9,2.1,3.3,3.1c0-0.2,0-0.4,0-0.6v-18.2
		C245.4,108.9,226.1,106.1,220.3,105.3z"/>
</g>
<g>
	<path class="st0" d="M242.5,145.4h-8.9c-3.5,0-6.9-1.1-9.8-3.1c-0.6-0.4-0.9-1.2-0.7-1.9s0.9-1.2,1.6-1.2h0.1c0.1,0,0.3,0,0.4,0
		c7.7-0.4,10.3-3.2,11.2-4.8c0.3-0.6,0.9-0.9,1.5-0.9c0.6,0,1.2,0.3,1.5,0.9c0.9,1.6,3.5,4.4,11.2,4.8c0.1,0,0.3,0,0.4,0h0.2
		c0.8,0,1.4,0.5,1.6,1.2c0.2,0.7,0,1.5-0.7,1.9C249.4,144.3,246,145.4,242.5,145.4z M231.3,141.7c0.8,0.1,1.6,0.2,2.4,0.2h8.8
		c0.8,0,1.6-0.1,2.4-0.2c-3.3-0.9-5.5-2.3-6.8-3.7C236.7,139.4,234.6,140.8,231.3,141.7z"/>
</g>
<path class="st0" d="M234.5,118.7H231c0-1.3-1.1-2.4-2.4-2.4s-2.4,1.1-2.4,2.4h-3.5c0-3.2,2.7-5.9,6-5.9
	C231.9,112.9,234.5,115.5,234.5,118.7z"/>
<path class="st0" d="M253.5,118.7H250c0-1.3-1.1-2.4-2.4-2.4s-2.4,1.1-2.4,2.4h-3.5c0-3.2,2.7-5.9,6-5.9
	C250.9,112.9,253.5,115.5,253.5,118.7z"/>
<path class="st0" d="M263.7,93c-7.9-5.1-16.4-8-23.3-8c-7.6,0-14.8,0-20,0.5c-2.9,0.3-9.6,1-9.6,5.3V91c0,2.2,0,5.4,1.2,8.3
	c1.5,3.7,4.7,5.7,9.1,5.7c2,0.3,27.2,3.9,38.7,5.6c3.9,0.6,6.6,0.8,8.6,0.8l0,0c2.7,0,4.4-0.5,5.6-1.5c1.4-1.3,1.6-3.1,1.6-4.6
	C275.5,101.8,269.1,96.5,263.7,93z"/>
<path class="st0" d="M264.2,130.9c-0.7-0.4-1.6-0.2-2.1,0.4c-0.2,0.2-0.5,0.5-1.1,0.5c-2.3,0-6.3-2.8-8.3-5.4
	c-1.8-2.3-4.6-3.6-7.8-3.6c-1.8,0-3.5,0.4-4.6,1.2c-0.7,0.5-1.4,1.1-2.1,1.9c-0.6-0.8-1.4-1.4-2.1-1.9c-1.2-0.8-2.9-1.2-4.6-1.2
	c-3.2,0-6.1,1.3-7.8,3.6c-2,2.5-5.9,5.4-8.3,5.4c-0.7,0-1-0.2-1.1-0.5c-0.5-0.6-1.4-0.8-2.1-0.4c-0.7,0.4-1.1,1.2-0.9,1.9
	c0.6,3.5,4.4,10.2,13.2,10.2c0.3,0,0.7,0,1.1,0c6.9-0.4,10.6-2.6,12.5-4.6c2,2,5.7,4.2,12.5,4.6c0.4,0,0.7,0,1.1,0
	c8.7,0,12.6-6.7,13.4-10.2C265.3,132,264.9,131.2,264.2,130.9z"/>
<g transform="translate(0,-952.36218)">
	<path class="st0" d="M203.7,970.4c14.6,0,26.7,9.7,26.7,22.1c0,6.7-3.8,12.2-9.3,16.1l4.3,10.2c0.4,0.9,0,2-1,2.4
		c-0.5,0.2-1.1,0.2-1.6-0.1l-12.8-7c-2,0.3-4.5,0.5-6.3,0.5c-14.6,0-26.7-9.7-26.7-22.1S189.2,970.4,203.7,970.4z M203.7,974
		c-12.9,0-23.1,8.5-23.1,18.5c0,10,10.1,18.5,23.1,18.5c1.8,0,4.8-0.2,6.3-0.5c0.4-0.1,0.8,0,1.2,0.2l8.8,4.8l-2.8-6.7
		c-0.3-0.8-0.1-1.8,0.7-2.2c5.5-3.5,8.9-8.2,8.9-14C226.8,982.5,216.7,974,203.7,974z M217.7,986.8c3,0,5.5,2.5,5.5,5.5
		c0,3-2.5,5.5-5.5,5.5c-3,0-5.5-2.5-5.5-5.5C212.2,989.2,214.7,986.8,217.7,986.8z M203.7,986.8c3,0,5.5,2.5,5.5,5.5
		c0,3-2.5,5.5-5.5,5.5s-5.5-2.5-5.5-5.5C198.2,989.2,200.7,986.8,203.7,986.8z M189.7,986.8c3,0,5.5,2.5,5.5,5.5
		c0,3-2.5,5.5-5.5,5.5s-5.5-2.5-5.5-5.5C184.3,989.2,186.8,986.8,189.7,986.8z M217.7,990.4c-1,0-1.8,0.8-1.8,1.8s0.8,1.8,1.8,1.8
		c1,0,1.8-0.8,1.8-1.8S218.7,990.4,217.7,990.4z M203.7,990.4c-1,0-1.8,0.8-1.8,1.8s0.8,1.8,1.8,1.8c1,0,1.8-0.8,1.8-1.8
		S204.7,990.4,203.7,990.4z M189.7,990.4c-1,0-1.8,0.8-1.8,1.8s0.8,1.8,1.8,1.8c1,0,1.8-0.8,1.8-1.8S190.8,990.4,189.7,990.4z"/>
</g>
<g transform="translate(0,-952.36218)">
	<path class="st0" d="M118.6,991.5c0,12.4-12.2,22.1-26.7,22.1c-1.8,0-4.3-0.2-6.3-0.5l-12.8,7c-0.5,0.3-1.1,0.3-1.6,0.1
		c-0.9-0.4-1.4-1.5-1-2.4l4.3-10.2c-5.5-3.9-9.3-9.4-9.3-16.1c0-12.4,12.2-22.1,26.7-22.1S118.6,979.1,118.6,991.5z M68.8,991.5
		c0,5.8,3.4,10.5,8.9,14c0.7,0.5,1,1.4,0.7,2.2l-2.8,6.7l8.8-4.8c0.4-0.2,0.8-0.3,1.2-0.2c1.6,0.3,4.5,0.5,6.3,0.5
		c12.9,0,23.1-8.5,23.1-18.5c0-10-10.1-18.5-23.1-18.5S68.8,981.5,68.8,991.5z M83.4,991.2c0,3-2.5,5.5-5.5,5.5
		c-3,0-5.5-2.5-5.5-5.5c0-3,2.5-5.5,5.5-5.5C80.9,985.8,83.4,988.2,83.4,991.2z M97.3,991.2c0,3-2.5,5.5-5.5,5.5
		c-3,0-5.5-2.5-5.5-5.5c0-3,2.5-5.5,5.5-5.5C94.9,985.8,97.3,988.2,97.3,991.2z M111.3,991.2c0,3-2.5,5.5-5.5,5.5s-5.5-2.5-5.5-5.5
		c0-3,2.5-5.5,5.5-5.5S111.3,988.2,111.3,991.2z M76.1,991.2c0,1,0.8,1.8,1.8,1.8c1,0,1.8-0.8,1.8-1.8s-0.8-1.8-1.8-1.8
		C76.9,989.4,76.1,990.2,76.1,991.2z M90,991.2c0,1,0.8,1.8,1.8,1.8s1.8-0.8,1.8-1.8s-0.8-1.8-1.8-1.8S90,990.2,90,991.2z
		 M104,991.2c0,1,0.8,1.8,1.8,1.8s1.8-0.8,1.8-1.8s-0.8-1.8-1.8-1.8S104,990.2,104,991.2z"/>
</g>
<g transform="translate(0,-952.36218)">
	<path class="st0" d="M147.5,979.4c14.6,0,26.7,9.7,26.7,22.1c0,6.7-3.8,12.2-9.3,16.1l-0.6,13.2c0,1,0.2,2.3-1,2.6
		c-1.2,0.3-1.9-0.8-2.5-1.5l-7.1-8.8c-2,0.3-4.5,0.5-6.3,0.5c-14.6,0-26.7-9.7-26.7-22.1S132.9,979.4,147.5,979.4z M147.5,983
		c-12.9,0-23.1,8.5-23.1,18.5s10.1,18.5,23.1,18.5c1.8,0,4.8-0.2,6.3-0.5c0.4-0.1,0.8,0,1.2,0.2l6.5,8.6l-0.6-10.5
		c0-1-0.1-1.8,0.7-2.2c5.5-3.5,8.9-8.2,8.9-14C170.6,991.5,160.4,983,147.5,983z M161.5,995.8c3,0,5.5,2.5,5.5,5.5
		c0,3-2.5,5.5-5.5,5.5s-5.5-2.5-5.5-5.5C156,998.2,158.5,995.8,161.5,995.8z M147.5,995.8c3,0,5.5,2.5,5.5,5.5c0,3-2.5,5.5-5.5,5.5
		s-5.5-2.5-5.5-5.5C142,998.2,144.5,995.8,147.5,995.8z M133.5,995.8c3,0,5.5,2.5,5.5,5.5c0,3-2.5,5.5-5.5,5.5c-3,0-5.5-2.5-5.5-5.5
		C128.1,998.2,130.5,995.8,133.5,995.8z M161.5,999.4c-1,0-1.8,0.8-1.8,1.8s0.8,1.8,1.8,1.8c1,0,1.8-0.8,1.8-1.8
		S162.5,999.4,161.5,999.4z M147.5,999.4c-1,0-1.8,0.8-1.8,1.8s0.8,1.8,1.8,1.8c1,0,1.8-0.8,1.8-1.8S148.5,999.4,147.5,999.4z
		 M133.5,999.4c-1,0-1.8,0.8-1.8,1.8s0.8,1.8,1.8,1.8c1,0,1.8-0.8,1.8-1.8S134.6,999.4,133.5,999.4z"/>
</g>
</svg>
